<?xml version="1.0" encoding="UTF-8" standalone="no"?>
<svg
   xmlns:dc="http://purl.org/dc/elements/1.1/"
   xmlns:cc="http://creativecommons.org/ns#"
   xmlns:rdf="http://www.w3.org/1999/02/22-rdf-syntax-ns#"
   xmlns:svg="http://www.w3.org/2000/svg"
   xmlns="http://www.w3.org/2000/svg"
   xmlns:sodipodi="http://sodipodi.sourceforge.net/DTD/sodipodi-0.dtd"
   xmlns:inkscape="http://www.inkscape.org/namespaces/inkscape"
   version="1.1"
   x="0px"
   y="0px"
   viewBox="0 0 100 100"
   enable-background="new 0 0 100 100"
   xml:space="preserve"
   id="svg2"
   inkscape:version="0.91 r13725"
   sodipodi:docname="logo_transparent.svg"
   width="100"
   height="100"><metadata
     id="metadata28"><rdf:RDF><cc:Work
         rdf:about=""><dc:format>image/svg+xml</dc:format><dc:type
           rdf:resource="http://purl.org/dc/dcmitype/StillImage" /><dc:title></dc:title></cc:Work></rdf:RDF></metadata><defs
     id="defs26" /><sodipodi:namedview
     pagecolor="#ffffff"
     bordercolor="#666666"
     borderopacity="1"
     objecttolerance="10"
     gridtolerance="10"
     guidetolerance="10"
     inkscape:pageopacity="0"
     inkscape:pageshadow="2"
     inkscape:window-width="1366"
     inkscape:window-height="687"
     id="namedview24"
     showgrid="false"
     inkscape:snap-object-midpoints="true"
     inkscape:snap-center="true"
     inkscape:object-paths="true"
     inkscape:object-nodes="true"
     inkscape:snap-smooth-nodes="true"
     inkscape:snap-midpoints="true"
     inkscape:snap-page="true"
     inkscape:snap-nodes="true"
     inkscape:snap-others="true"
     inkscape:snap-intersection-paths="true"
     inkscape:zoom="4"
     inkscape:cx="36.297"
     inkscape:cy="73.175497"
     inkscape:window-x="0"
     inkscape:window-y="24"
     inkscape:window-maximized="1"
     inkscape:current-layer="svg2"
     showguides="false"
     inkscape:snap-text-baseline="true" /><path
     style="opacity:1;fill:#ffc107;fill-opacity:1;stroke-width:0.1;stroke-miterlimit:4;stroke-dasharray:none"
     d="M -0.09375 0.09375 L -0.09375 100.09375 L 99.90625 100.09375 L 99.90625 0.09375 L -0.09375 0.09375 z M 38.380859 7.0390625 C 38.764609 7.0524375 39.143281 7.2116719 39.425781 7.5136719 C 39.990751 8.118672 39.958516 9.0697656 39.353516 9.6347656 C 39.182516 9.7957656 39.007031 9.9533283 38.832031 10.111328 C 38.636031 10.287328 38.456156 10.453234 38.285156 10.615234 C 37.295156 11.554234 36.742188 12.306156 36.742188 13.660156 C 36.742187 14.954156 37.251156 15.699031 38.160156 16.582031 C 38.366156 16.782031 38.585031 16.987938 38.832031 17.210938 C 40.205031 18.448937 41.914062 19.988328 41.914062 22.986328 C 41.914062 25.980328 40.191594 27.535828 38.933594 28.673828 C 38.646594 28.932828 38.287686 29.060547 37.929688 29.060547 C 37.520687 29.060547 37.112406 28.895359 36.816406 28.568359 C 36.260406 27.953359 36.307875 27.005219 36.921875 26.449219 C 37.329875 26.081219 37.680609 25.749063 37.974609 25.414062 C 38.570609 24.737063 38.916016 24.044328 38.916016 22.986328 C 38.916016 21.995328 38.621219 21.326875 38.074219 20.671875 C 37.746219 20.278875 37.325219 19.891453 36.824219 19.439453 C 35.450219 18.201453 33.742188 16.660156 33.742188 13.660156 C 33.742187 10.662156 35.449266 9.1208125 36.822266 7.8828125 C 36.984266 7.7368125 37.147641 7.5894063 37.306641 7.4414062 C 37.609141 7.1589063 37.997109 7.0256825 38.380859 7.0390625 z M 50.455078 7.0390625 C 50.838818 7.0524375 51.21749 7.2116719 51.5 7.5136719 C 52.06497 8.118672 52.032734 9.0678125 51.427734 9.6328125 C 51.256734 9.7938125 51.08125 9.9513751 50.90625 10.109375 C 50.71025 10.286375 50.532328 10.453234 50.361328 10.615234 C 49.371328 11.554234 48.816406 12.306156 48.816406 13.660156 C 48.816406 14.955156 49.325375 15.699031 50.234375 16.582031 C 50.441375 16.782031 50.661203 16.987938 50.908203 17.210938 C 52.282203 18.448937 53.990234 19.988328 53.990234 22.986328 C 53.990234 25.980328 52.269709 27.536828 51.011719 28.673828 C 50.724719 28.932828 50.363859 29.060547 50.005859 29.060547 C 49.596859 29.060547 49.188578 28.895359 48.892578 28.568359 C 48.336578 27.953359 48.386 27.005219 49 26.449219 C 49.408 26.081219 49.757828 25.749109 50.048828 25.412109 C 50.643828 24.735109 50.990234 24.043375 50.990234 22.984375 C 50.990234 21.994375 50.695436 21.326875 50.148438 20.671875 C 49.820436 20.278875 49.401391 19.8895 48.900391 19.4375 C 47.526391 18.1995 45.816406 16.658203 45.816406 13.658203 C 45.816406 10.660203 47.525438 9.1188594 48.898438 7.8808594 C 49.060437 7.7348594 49.221859 7.5894063 49.380859 7.4414062 C 49.683359 7.1589063 50.071328 7.0256825 50.455078 7.0390625 z M 62.535156 7.0390625 C 62.918906 7.0524375 63.298078 7.2116719 63.580078 7.5136719 C 64.145048 8.118672 64.112813 9.0678125 63.507812 9.6328125 C 63.336813 9.7938125 63.161328 9.9513751 62.986328 10.109375 C 62.790328 10.286375 62.610453 10.451281 62.439453 10.613281 C 61.449453 11.553281 60.896484 12.306156 60.896484 13.660156 C 60.896484 14.954156 61.405453 15.699031 62.314453 16.582031 C 62.520453 16.783031 62.741281 16.987938 62.988281 17.210938 C 64.361281 18.448937 66.070312 19.988328 66.070312 22.986328 C 66.070313 25.980328 64.345891 27.535828 63.087891 28.673828 C 62.800891 28.932828 62.441984 29.060547 62.083984 29.060547 C 61.674984 29.060547 61.266703 28.895359 60.970703 28.568359 C 60.414703 27.953359 60.464125 27.005219 61.078125 26.449219 C 61.486125 26.081219 61.833953 25.749109 62.126953 25.412109 C 62.721953 24.734109 63.068359 24.042375 63.068359 22.984375 C 63.068359 21.994375 62.775516 21.326875 62.228516 20.671875 C 61.900516 20.278875 61.479516 19.8895 60.978516 19.4375 C 59.604516 18.1995 57.896484 16.658203 57.896484 13.658203 C 57.896484 10.660203 59.603563 9.1188594 60.976562 7.8808594 C 61.138563 7.7348594 61.299984 7.5894063 61.458984 7.4414062 C 61.761984 7.1589063 62.151406 7.0256825 62.535156 7.0390625 z M 74.082031 30.160156 L 77.269531 30.160156 L 77.269531 37.503906 L 82.630859 37.503906 L 82.630859 40.785156 L 77.269531 40.785156 L 77.269531 47.677734 L 78.943359 47.677734 L 83.787109 47.632812 C 87.247109 47.632821 90.016324 50.967055 89.990234 53.908203 C 89.959821 57.336584 87.369449 61.16785 82.630859 61.09375 L 82.630859 61.097656 L 77.994141 61.097656 C 75.386031 61.097656 74.082031 59.639322 74.082031 56.722656 L 74.082031 50.816406 L 58.001953 50.816406 C 58.101873 52.677262 58.534424 54.256231 59.302734 55.550781 C 60.075504 56.852864 61.281688 57.555989 62.923828 57.660156 C 63.696598 57.660156 64.325604 57.503906 64.808594 57.191406 C 65.291574 56.878906 65.726901 56.358072 66.113281 55.628906 L 69.589844 55.628906 C 69.106854 57.503906 68.262147 58.884114 67.054688 59.769531 C 65.847225 60.654947 64.469378 61.097656 62.923828 61.097656 C 60.412318 61.097656 58.433325 60.108072 56.984375 58.128906 C 55.589725 56.223915 54.872613 53.782952 54.820312 50.816406 L 39.455078 50.816406 C 39.555008 52.677262 39.987559 54.256231 40.755859 55.550781 C 41.528639 56.852864 42.736756 57.555989 44.378906 57.660156 C 45.151676 57.660156 45.778739 57.503906 46.261719 57.191406 C 46.744699 56.878906 47.180016 56.358072 47.566406 55.628906 L 51.042969 55.628906 C 50.559989 57.503906 49.715272 58.884114 48.507812 59.769531 C 47.300363 60.654947 45.924456 61.097656 44.378906 61.097656 C 41.867386 61.097656 39.88645 60.108072 38.4375 58.128906 C 37.04285 56.223911 36.325738 53.782961 36.273438 50.816406 L 31.771484 50.816406 L 31.771484 61.097656 L 28.439453 61.097656 L 28.439453 50.816406 L 22.208984 50.816406 L 22.208984 61.097656 L 19.021484 61.097656 L 19.021484 50.816406 L 12.935547 50.816406 L 12.935547 61.097656 L 9.8222656 61.097656 L 9.8222656 37.503906 L 12.935547 37.503906 L 12.935547 38.597656 C 13.515127 37.868489 14.577497 37.503906 16.123047 37.503906 L 17.427734 37.503906 C 18.297104 37.503906 19.045948 37.686197 19.673828 38.050781 C 20.301708 38.415364 20.808933 38.858072 21.195312 39.378906 C 22.354484 38.128906 23.85217 37.503906 25.6875 37.503906 L 27.28125 37.503906 C 28.34382 37.503906 29.358249 37.946614 30.324219 38.832031 C 31.290189 39.717447 31.771484 41.201821 31.771484 43.285156 L 31.771484 47.677734 L 36.267578 47.677734 C 36.284958 44.208902 36.934263 41.648056 38.220703 40.003906 C 39.524753 38.337239 41.046416 37.503906 42.785156 37.503906 L 44.523438 37.503906 C 46.165577 37.503906 47.663265 38.337239 49.015625 40.003906 C 50.349705 41.648056 51.021062 44.208902 51.039062 47.677734 L 54.814453 47.677734 C 54.831823 44.208902 55.481138 41.648056 56.767578 40.003906 C 58.071638 38.337239 59.591338 37.503906 61.330078 37.503906 L 63.070312 37.503906 C 64.712464 37.503906 66.208197 38.337239 67.560547 40.003906 C 68.894627 41.648056 69.567937 44.208902 69.585938 47.677734 L 74.082031 47.677734 L 74.082031 40.785156 L 71.908203 40.785156 L 71.908203 37.503906 L 74.082031 37.503906 L 74.082031 30.160156 z M 16.123047 40.785156 C 14.674097 40.785156 13.611727 41.305988 12.935547 42.347656 L 12.935547 47.677734 L 19.021484 47.677734 L 19.021484 43.285156 C 19.021484 42.243489 18.731924 41.566406 18.152344 41.253906 C 17.572764 40.941406 16.895817 40.785156 16.123047 40.785156 z M 25.6875 40.785156 C 24.33515 40.785156 23.174944 41.305988 22.208984 42.347656 L 22.208984 47.677734 L 28.439453 47.677734 L 28.439453 43.285156 C 28.439453 42.347656 28.221799 41.696614 27.787109 41.332031 C 27.352429 40.967447 26.65347 40.785156 25.6875 40.785156 z M 43.654297 40.785156 C 42.495137 40.785156 41.504664 41.384113 40.683594 42.582031 C 39.862514 43.779947 39.451172 45.420572 39.451172 47.503906 L 47.710938 47.503906 C 47.807536 45.212239 47.494011 43.519531 46.769531 42.425781 C 46.045061 41.33203 45.006647 40.785156 43.654297 40.785156 z M 62.201172 40.785156 C 61.042012 40.785156 60.051539 41.384113 59.230469 42.582031 C 58.409399 43.779947 57.998047 45.420572 57.998047 47.503906 L 66.257812 47.503906 C 66.354412 45.212239 66.040876 43.519531 65.316406 42.425781 C 64.591926 41.33203 63.553532 40.785156 62.201172 40.785156 z M 83.804688 50.769531 L 78.943359 50.816406 L 77.269531 50.816406 L 77.269531 56.722656 C 77.269531 57.347656 77.511161 57.660156 77.994141 57.660156 L 80.205078 57.660156 L 80.205078 57.646484 L 82.558594 57.646484 C 85.586384 57.682269 86.927734 56.936203 86.927734 53.908203 C 86.927734 52.179203 85.519688 50.769531 83.804688 50.769531 z M 18.207031 62.201172 C 18.426641 62.194722 18.649486 62.197918 18.878906 62.210938 C 20.810836 62.210935 22.308534 62.783853 23.371094 63.929688 C 24.433654 65.07552 24.964834 66.638019 24.964844 68.617188 C 24.964844 70.596352 24.409688 72.367188 23.298828 73.929688 C 22.187958 75.492188 21.029726 76.768231 19.822266 77.757812 C 19.532476 77.9987 19.229946 78.242838 18.916016 78.490234 C 19.139876 78.871775 19.397413 79.279477 19.664062 79.695312 L 21.109375 79.708984 L 25.248047 79.708984 C 25.514077 78.266244 25.714774 76.666859 25.833984 74.867188 L 29.167969 74.867188 C 29.075689 76.608637 28.896182 78.217079 28.638672 79.708984 L 44.240234 79.708984 C 44.260014 76.250223 44.909369 73.695707 46.193359 72.054688 C 47.497409 70.38802 49.017119 69.554688 50.755859 69.554688 L 52.496094 69.554688 C 54.138244 69.554688 55.633968 70.388019 56.986328 72.054688 C 58.317868 73.695706 58.991219 76.250223 59.011719 79.708984 L 72.691406 79.708984 L 72.78125 76.117188 C 72.80945 74.971699 72.467714 74.138019 71.839844 73.617188 C 71.211954 73.096351 70.413226 72.835938 69.447266 72.835938 C 68.481296 72.835938 67.734415 73.148437 67.203125 73.773438 C 66.671845 74.398438 66.308424 75.388019 66.115234 76.742188 L 62.783203 76.742188 C 62.879803 74.658854 63.458924 72.940105 64.521484 71.585938 C 65.584044 70.23177 67.129673 69.554688 69.158203 69.554688 L 70.751953 69.554688 C 72.007703 69.554688 73.21584 70.049481 74.375 71.039062 C 75.53416 72.028646 76.113281 73.721354 76.113281 76.117188 L 76.113281 79.708984 L 81.185547 79.708984 L 81.185547 72.835938 L 79.011719 72.835938 L 79.011719 69.554688 L 81.185547 69.554688 L 81.185547 62.210938 L 84.373047 62.210938 L 84.373047 69.554688 L 89.990234 69.554688 L 89.990234 72.835938 L 84.373047 72.835938 L 84.373047 79.708984 L 89.990234 79.708984 L 89.990234 82.847656 L 84.373047 82.847656 L 84.373047 88.773438 C 84.373047 89.398437 84.614666 89.710938 85.097656 89.710938 L 89.990234 89.710938 L 89.990234 93.148438 L 85.097656 93.148438 C 82.489536 93.148436 81.185547 91.690104 81.185547 88.773438 L 81.185547 82.847656 L 76.113281 82.847656 L 76.113281 93.148438 L 72.78125 93.148438 L 72.78125 91.429688 C 71.62209 92.575519 70.172364 93.148438 68.433594 93.148438 C 64.666344 93.148438 62.783203 90.856769 62.783203 86.273438 C 62.783203 84.815436 63.046394 83.709309 63.558594 82.847656 L 47.425781 82.847656 C 47.523651 84.717318 47.957416 86.30232 48.728516 87.601562 C 49.501286 88.903648 50.707459 89.606769 52.349609 89.710938 C 53.122379 89.710938 53.751395 89.554688 54.234375 89.242188 C 54.717355 88.929687 55.152673 88.408855 55.539062 87.679688 L 59.015625 87.679688 C 58.532635 89.554687 57.687929 90.934895 56.480469 91.820312 C 55.273009 92.705731 53.895149 93.148438 52.349609 93.148438 C 49.838089 93.148436 47.859096 92.158854 46.410156 90.179688 C 45.012506 88.270604 44.295594 85.822859 44.246094 82.847656 L 27.908203 82.847656 C 27.777683 83.293568 27.651813 83.747316 27.501953 84.164062 C 27.025013 85.492188 26.442156 86.709635 25.753906 87.816406 C 27.118326 89.463542 28.641772 91.240887 30.326172 93.148438 L 25.544922 93.148438 C 24.850642 92.282551 24.186644 91.436197 23.552734 90.609375 C 22.574244 91.592685 21.454855 92.281263 20.203125 92.693359 L 20.205078 92.703125 L 20.150391 92.710938 C 19.262251 92.996745 18.309716 93.148438 17.285156 93.148438 C 17.227086 93.148437 17.172734 93.143467 17.115234 93.142578 C 17.07769 93.141878 17.0394 93.139119 17 93.136719 C 14.91236 93.082097 13.218811 92.440269 11.925781 91.195312 C 10.573431 89.893231 9.8222656 87.940104 9.8222656 85.335938 C 9.8222656 83.669269 10.331812 82.184895 11.201172 80.882812 C 12.070552 79.580731 13.204819 78.486981 14.605469 77.601562 C 14.714139 77.536458 14.822971 77.468094 14.931641 77.396484 C 13.301581 74.102213 12.443875 71.332031 12.359375 69.085938 C 12.455975 66.690104 13.108946 64.919269 14.316406 63.773438 C 15.372926 62.770834 16.669791 62.246742 18.207031 62.201172 z M 18.878906 65.335938 C 17.816346 65.335938 16.995596 65.674481 16.416016 66.351562 C 15.836426 67.028646 15.546875 67.940105 15.546875 69.085938 C 15.619315 70.928385 16.235371 73.093098 17.394531 75.580078 C 17.992221 75.098306 18.608268 74.574219 19.242188 74.007812 C 20.932626 72.497395 21.777334 70.700519 21.777344 68.617188 C 21.777344 67.575519 21.511749 66.768231 20.980469 66.195312 C 20.449189 65.622395 19.748276 65.335938 18.878906 65.335938 z M 51.626953 72.835938 C 50.467793 72.835938 49.47732 73.434895 48.65625 74.632812 C 47.83518 75.830731 47.423828 77.471355 47.423828 79.554688 L 55.683594 79.554688 C 55.780204 77.263019 55.466656 75.570312 54.742188 74.476562 C 54.017707 73.382812 52.979313 72.835938 51.626953 72.835938 z M 16.248047 82.800781 C 14.537057 82.800794 13.133953 84.20427 13.126953 85.927734 C 13.224373 87.263817 13.630942 88.228689 14.388672 88.773438 C 15.063902 89.258859 15.829617 89.549795 16.679688 89.658203 C 16.940407 89.670583 17.202411 89.683087 17.494141 89.679688 L 17.912109 89.679688 C 19.035359 89.53371 20.187804 88.87679 21.371094 87.708984 C 20.120564 85.989595 19.01641 84.365893 18.03125 82.818359 L 16.248047 82.800781 z M 21.851562 82.847656 C 22.357953 83.533728 22.891929 84.242167 23.480469 84.994141 C 23.875279 84.320034 24.184196 83.596736 24.447266 82.847656 L 21.851562 82.847656 z M 67.685547 82.847656 C 66.592017 83.701895 66.018103 84.842664 65.970703 86.273438 C 65.970703 88.565104 66.937201 89.710938 68.869141 89.710938 C 69.931701 89.710936 71.23571 88.981769 72.78125 87.523438 L 72.78125 82.847656 L 67.685547 82.847656 z "
     id="rect4142" /><g
     display="none"
     id="g4"
     style="display:none"
     transform="translate(0,-25)"><rect
       x="-654"
       y="-1088.38"
       display="inline"
       stroke-miterlimit="10"
       width="1370"
       height="1329.38"
       id="rect6"
       style="display:inline;fill:#000000;stroke:#000000;stroke-width:1.02550006;stroke-miterlimit:10" /></g></svg>