<?xml version="1.0" encoding="UTF-8" standalone="no"?>
<!-- Created with Inkscape (http://www.inkscape.org/) -->

<svg
   xmlns:dc="http://purl.org/dc/elements/1.1/"
   xmlns:cc="http://creativecommons.org/ns#"
   xmlns:rdf="http://www.w3.org/1999/02/22-rdf-syntax-ns#"
   xmlns:svg="http://www.w3.org/2000/svg"
   xmlns="http://www.w3.org/2000/svg"
   xmlns:sodipodi="http://sodipodi.sourceforge.net/DTD/sodipodi-0.dtd"
   xmlns:inkscape="http://www.inkscape.org/namespaces/inkscape"
   width="69.346016mm"
   height="69.346016mm"
   viewBox="0 0 245.71423 245.71428"
   id="svg2"
   version="1.1"
   inkscape:version="0.91 r13725"
   sodipodi:docname="+.svg">
  <defs
     id="defs4" />
  <sodipodi:namedview
     id="base"
     pagecolor="#ffffff"
     bordercolor="#666666"
     borderopacity="1.0"
     inkscape:pageopacity="0.0"
     inkscape:pageshadow="2"
     inkscape:zoom="0.7"
     inkscape:cx="70.474844"
     inkscape:cy="7.389376"
     inkscape:document-units="pt"
     inkscape:current-layer="layer1"
     showgrid="false"
     fit-margin-top="0"
     fit-margin-left="0"
     fit-margin-right="0"
     fit-margin-bottom="0"
     inkscape:window-width="1366"
     inkscape:window-height="693"
     inkscape:window-x="0"
     inkscape:window-y="24"
     inkscape:window-maximized="1" />
  <metadata
     id="metadata7">
    <rdf:RDF>
      <cc:Work
         rdf:about="">
        <dc:format>image/svg+xml</dc:format>
        <dc:type
           rdf:resource="http://purl.org/dc/dcmitype/StillImage" />
        <dc:title></dc:title>
      </cc:Work>
    </rdf:RDF>
  </metadata>
  <g
     inkscape:label="Capa 1"
     inkscape:groupmode="layer"
     id="layer1"
     transform="translate(-264.28573,-379.50507)">
    <rect
       style="opacity:1;fill:#ff0000;fill-opacity:1;fill-rule:nonzero;stroke:none;stroke-width:1;stroke-linecap:round;stroke-linejoin:round;stroke-miterlimit:4;stroke-dasharray:none;stroke-opacity:1"
       id="rect3357"
       width="245.71428"
       height="245.71428"
       x="264.28571"
       y="379.50507" />
    <g
       style="font-style:normal;font-weight:normal;font-size:40px;line-height:125%;font-family:sans-serif;letter-spacing:0px;word-spacing:0px;fill:#ffffff;fill-opacity:1;stroke:none;stroke-width:1px;stroke-linecap:butt;stroke-linejoin:miter;stroke-opacity:1"
       id="text3359"
       transform="matrix(1.2820079,0,0,1.2820079,7.2582651,253.10959)">
      <path
         d="m 280.3,216.11362 55.08,0 c -7.2,14.76 -21.6,23.4 -39.06,23.4 -26.1,0 -46.08,-19.62 -46.08,-45 0,-11.52 4.86,-24.12 12.42,-32.04 7.74,-8.46 19.44,-13.14 32.22,-13.14 15.48,0 28.26,6.12 36.54,17.64 l 28.98,0 c -8.64,-23.94 -36,-41.4 -64.98,-41.4 -38.88,0 -70.02,30.42 -70.02,68.58 0,38.88 31.5,69.12 72.36,69.12 19.98,0 37.26,-7.02 50.4,-20.52 12.24,-12.78 19.08,-29.34 19.08,-46.44 l 0,-3.24 -86.94,0 0,23.04 z"
         style="font-style:normal;font-variant:normal;font-weight:600;font-stretch:normal;font-size:180px;font-family:'URW Gothic L';-inkscape-font-specification:'URW Gothic L Semi-Bold';fill:#ffffff"
         id="path3367"
         inkscape:connector-curvature="0" />
    </g>
  </g>
</svg>
